<?xml version="1.0" standalone="no"?>
<!DOCTYPE svg PUBLIC "-//W3C//DTD SVG 20010904//EN"
 "http://www.w3.org/TR/2001/REC-SVG-20010904/DTD/svg10.dtd">
<svg version="1.0" xmlns="http://www.w3.org/2000/svg"
 width="189.000000pt" height="189.000000pt" viewBox="0 0 189.000000 189.000000"
 preserveAspectRatio="xMidYMid meet">
<metadata>
Created by potrace 1.11, written by Peter Selinger 2001-2013
</metadata>
<g transform="translate(0.000000,189.000000) scale(0.100000,-0.100000)"
fill="#000000" stroke="none">
<path d="M796 1404 c-169 -33 -370 -176 -441 -315 l-16 -29 -169 0 -170 0 0
-35 c0 -31 3 -35 28 -35 43 0 124 -43 164 -88 25 -28 43 -62 55 -102 15 -57
18 -60 47 -60 29 0 31 2 34 43 3 51 20 131 39 175 l13 32 567 -2 567 -3 23
-70 c12 -38 22 -87 22 -107 1 -54 10 -68 40 -68 25 0 29 5 44 60 28 98 108
170 206 186 39 6 41 9 41 40 l0 34 -170 0 -169 0 -16 29 c-28 56 -115 150
-179 196 -165 117 -360 159 -560 119z m124 -86 c0 -25 12 -44 60 -94 57 -59
60 -65 60 -113 l0 -51 -90 0 -90 0 0 39 c0 35 -6 45 -60 94 -52 47 -60 58 -60
90 0 21 3 37 8 37 18 0 152 -147 152 -167 0 -30 35 -48 66 -34 36 16 34 68 -3
82 -16 5 -56 38 -91 72 -68 67 -67 75 11 76 35 1 37 -1 37 -31z m120 -5 c0
-32 8 -46 57 -95 l58 -58 -38 -37 -37 -38 0 51 c0 47 -3 53 -55 104 -40 40
-55 62 -55 82 0 25 3 28 35 28 34 0 35 -1 35 -37z m94 11 c11 -4 16 -19 16
-47 l0 -41 -35 34 c-19 19 -35 40 -35 47 0 14 27 17 54 7z m-434 -93 c0 -52
-3 -60 -32 -87 -18 -17 -46 -36 -61 -42 -15 -7 -30 -19 -33 -27 -4 -9 -19 -15
-37 -15 l-31 0 62 63 c56 57 62 66 62 104 0 36 4 45 27 57 16 8 31 12 35 9 5
-2 8 -30 8 -62z m560 -9 c0 -27 -5 -53 -11 -59 -17 -17 -6 -56 19 -69 56 -28
48 -34 -48 -34 l-94 0 37 38 c37 37 37 39 37 120 l0 83 30 -16 c27 -14 30 -20
30 -63z m-734 -71 c-31 -31 -56 -64 -56 -74 0 -12 -8 -17 -25 -17 -23 0 -25 2
-14 22 21 40 141 154 146 139 3 -7 -20 -38 -51 -70z m821 53 c30 -23 33 -29
33 -81 l0 -56 -25 23 c-14 13 -25 33 -25 46 0 12 -7 27 -15 34 -15 12 -21 60
-8 60 3 0 21 -11 40 -26z m-537 -116 l0 -28 -70 0 c-38 0 -70 4 -70 8 0 4 16
23 35 42 19 19 35 43 35 54 0 17 5 15 35 -14 24 -23 35 -43 35 -62z m651 -10
c8 -15 6 -18 -16 -18 -21 0 -25 4 -25 31 0 27 2 30 16 19 8 -8 20 -22 25 -32z
m-1167 -115 c-12 -49 -18 -50 -53 -11 l-33 38 46 0 c46 0 46 -1 40 -27z m1354
-13 l-33 -39 -12 27 c-20 46 -17 52 33 52 l45 0 -33 -40z"/>
<path d="M452 838 c-14 -14 -16 -67 -3 -86 5 -8 21 -12 37 -10 27 3 29 7 32
47 3 45 -7 61 -38 61 -9 0 -21 -5 -28 -12z m43 -48 c0 -13 -6 -25 -12 -27 -9
-3 -13 6 -13 27 0 21 4 30 13 28 6 -3 12 -15 12 -28z"/>
<path d="M540 796 c0 -43 3 -56 15 -56 8 0 15 7 15 15 0 9 12 20 26 25 20 8
25 16 22 38 -3 23 -8 27 -40 30 l-38 3 0 -55z m55 14 c-3 -5 -10 -10 -16 -10
-5 0 -9 5 -9 10 0 6 7 10 16 10 8 0 12 -4 9 -10z"/>
<path d="M640 795 l0 -55 40 0 c22 0 40 5 40 10 0 6 -11 10 -25 10 -14 0 -25
5 -25 10 0 6 9 10 20 10 28 0 26 30 -2 31 -22 1 -22 1 1 8 42 12 37 31 -8 31
l-41 0 0 -55z"/>
<path d="M740 795 c0 -30 5 -55 10 -55 6 0 10 10 10 23 l1 22 18 -22 c30 -37
41 -28 41 32 0 42 -3 55 -15 55 -9 0 -15 -9 -16 -22 l0 -23 -16 23 c-24 35
-33 26 -33 -33z"/>
<path d="M881 836 c-17 -20 -7 -46 19 -53 27 -7 26 -25 -2 -21 -11 2 -23 -3
-26 -10 -3 -10 6 -13 34 -10 34 3 39 7 42 29 3 22 -2 28 -25 34 -27 8 -27 8
-5 14 13 3 23 11 23 16 -1 17 -47 17 -60 1z"/>
<path d="M981 836 c-7 -8 -11 -32 -9 -53 3 -36 5 -38 38 -38 33 0 35 2 38 38
4 42 -11 67 -38 67 -10 0 -23 -6 -29 -14z m39 -46 c0 -16 -4 -30 -9 -30 -12 0
-24 37 -16 50 12 20 25 10 25 -20z"/>
<path d="M1072 798 l3 -53 35 0 35 0 3 53 c2 31 -1 52 -7 52 -6 0 -11 -13 -11
-29 0 -16 -3 -36 -6 -45 -12 -31 -24 -16 -24 29 0 34 -4 45 -16 45 -12 0 -14
-10 -12 -52z"/>
<path d="M1170 796 c0 -43 3 -56 15 -56 9 0 15 9 16 23 l0 22 11 -22 c6 -13
20 -23 30 -23 13 0 17 4 12 12 -5 7 -8 31 -9 53 0 39 -1 40 -37 43 l-38 3 0
-55z m55 14 c-3 -5 -10 -10 -16 -10 -5 0 -9 5 -9 10 0 6 7 10 16 10 8 0 12 -4
9 -10z"/>
<path d="M1282 838 c-17 -17 -15 -73 2 -88 18 -14 58 -10 64 8 3 9 -3 13 -19
10 -20 -2 -25 2 -27 26 -3 26 -1 28 22 22 19 -5 26 -2 26 8 0 25 -47 35 -68
14z"/>
<path d="M1370 795 l0 -55 35 0 c19 0 35 5 35 10 0 6 -9 10 -20 10 -11 0 -20
5 -20 10 0 6 9 10 20 10 27 0 25 18 -2 30 l-23 9 23 0 c39 1 27 31 -13 31
l-35 0 0 -55z"/>
<path d="M457 693 c-4 -3 -7 -51 -7 -105 l0 -98 63 0 c76 0 104 20 93 67 -9
36 -9 44 -1 70 12 37 -34 73 -93 73 -27 0 -52 -3 -55 -7z m91 -60 c2 -8 -5
-13 -17 -13 -12 0 -21 6 -21 16 0 18 31 15 38 -3z m2 -78 c0 -8 -9 -15 -20
-15 -11 0 -20 7 -20 15 0 8 9 15 20 15 11 0 20 -7 20 -15z"/>
<path d="M647 693 c-4 -3 -7 -51 -7 -105 l0 -98 29 0 c27 0 30 3 33 38 l3 37
20 -37 c16 -33 24 -38 52 -38 l33 0 -20 40 c-19 37 -19 43 -5 63 21 31 19 54
-10 82 -19 20 -34 25 -73 25 -27 0 -52 -3 -55 -7z m91 -66 c2 -12 -3 -17 -17
-17 -15 0 -21 6 -21 21 0 25 33 22 38 -4z"/>
<path d="M837 694 c-4 -4 -7 -52 -7 -106 l0 -98 30 0 31 0 -3 103 c-3 94 -5
102 -23 105 -12 2 -24 0 -28 -4z"/>
<path d="M927 693 c-4 -3 -7 -51 -7 -105 l0 -98 60 0 c83 0 100 18 100 104 0
58 -3 67 -26 85 -26 21 -112 30 -127 14z m91 -55 c26 -26 11 -98 -19 -98 -16
0 -19 8 -19 55 0 56 12 69 38 43z"/>
<path d="M1136 679 c-23 -18 -26 -27 -26 -85 0 -85 24 -112 95 -104 36 3 65
40 65 82 l0 38 -45 0 c-39 0 -45 -3 -45 -20 0 -11 7 -23 15 -26 23 -9 18 -26
-7 -22 -19 2 -23 10 -26 43 -3 54 10 74 38 58 24 -16 70 -17 70 -3 0 6 -11 22
-25 35 -30 31 -73 32 -109 4z"/>
<path d="M1307 694 c-4 -4 -7 -52 -7 -106 l0 -98 76 0 c72 0 75 1 72 23 -2 18
-10 23 -45 25 -55 4 -61 32 -8 32 31 0 35 3 35 25 0 22 -4 25 -35 25 -24 0
-35 5 -35 15 0 11 12 15 46 15 41 0 45 2 42 23 -3 20 -9 22 -68 25 -36 2 -69
0 -73 -4z"/>
</g>
</svg>
